<mxfile host="app.diagrams.net" modified="2023-11-12T06:47:05.920Z" agent="Mozilla/5.0 (Windows NT 10.0; Win64; x64) AppleWebKit/537.36 (KHTML, like Gecko) Chrome/119.0.0.0 Safari/537.36 Edg/119.0.0.0" etag="pW-bbvlmrKrBGE7tosDB" version="22.1.0" type="github">
  <diagram name="Page-1" id="brGaT54tGY1qvHef1-Nk">
    <mxGraphModel dx="1386" dy="793" grid="1" gridSize="10" guides="1" tooltips="1" connect="1" arrows="1" fold="1" page="1" pageScale="1" pageWidth="850" pageHeight="1100" math="0" shadow="0">
      <root>
        <mxCell id="0" />
        <mxCell id="1" parent="0" />
        <mxCell id="stU05CKev7n2WLKIz2gp-14" style="edgeStyle=orthogonalEdgeStyle;rounded=0;orthogonalLoop=1;jettySize=auto;html=1;exitX=0.5;exitY=1;exitDx=0;exitDy=0;exitPerimeter=0;entryX=0.5;entryY=0;entryDx=0;entryDy=0;" edge="1" parent="1" source="stU05CKev7n2WLKIz2gp-1" target="stU05CKev7n2WLKIz2gp-6">
          <mxGeometry relative="1" as="geometry" />
        </mxCell>
        <mxCell id="stU05CKev7n2WLKIz2gp-15" style="edgeStyle=orthogonalEdgeStyle;rounded=0;orthogonalLoop=1;jettySize=auto;html=1;exitX=0.5;exitY=1;exitDx=0;exitDy=0;exitPerimeter=0;" edge="1" parent="1" source="stU05CKev7n2WLKIz2gp-1" target="stU05CKev7n2WLKIz2gp-7">
          <mxGeometry relative="1" as="geometry" />
        </mxCell>
        <mxCell id="stU05CKev7n2WLKIz2gp-16" style="edgeStyle=orthogonalEdgeStyle;rounded=0;orthogonalLoop=1;jettySize=auto;html=1;exitX=0.5;exitY=1;exitDx=0;exitDy=0;exitPerimeter=0;entryX=0.5;entryY=0;entryDx=0;entryDy=0;" edge="1" parent="1" source="stU05CKev7n2WLKIz2gp-1" target="stU05CKev7n2WLKIz2gp-8">
          <mxGeometry relative="1" as="geometry" />
        </mxCell>
        <mxCell id="stU05CKev7n2WLKIz2gp-17" style="edgeStyle=orthogonalEdgeStyle;rounded=0;orthogonalLoop=1;jettySize=auto;html=1;exitX=0.5;exitY=1;exitDx=0;exitDy=0;exitPerimeter=0;entryX=0.5;entryY=0;entryDx=0;entryDy=0;" edge="1" parent="1" source="stU05CKev7n2WLKIz2gp-1" target="stU05CKev7n2WLKIz2gp-5">
          <mxGeometry relative="1" as="geometry" />
        </mxCell>
        <mxCell id="stU05CKev7n2WLKIz2gp-1" value="&lt;b&gt;LOAD BALANCER&lt;/b&gt;" style="outlineConnect=0;dashed=0;verticalLabelPosition=bottom;verticalAlign=top;align=center;html=1;shape=mxgraph.aws3.application_load_balancer;fillColor=#F58536;gradientColor=none;" vertex="1" parent="1">
          <mxGeometry x="330" y="20" width="130" height="120" as="geometry" />
        </mxCell>
        <mxCell id="stU05CKev7n2WLKIz2gp-4" value="" style="strokeWidth=2;html=1;shape=mxgraph.flowchart.database;whiteSpace=wrap;" vertex="1" parent="1">
          <mxGeometry x="365" y="450" width="60" height="60" as="geometry" />
        </mxCell>
        <mxCell id="stU05CKev7n2WLKIz2gp-5" value="" style="image;html=1;image=img/lib/clip_art/computers/Server_128x128.png" vertex="1" parent="1">
          <mxGeometry x="30" y="210" width="80" height="80" as="geometry" />
        </mxCell>
        <mxCell id="stU05CKev7n2WLKIz2gp-6" value="" style="image;html=1;image=img/lib/clip_art/computers/Server_128x128.png" vertex="1" parent="1">
          <mxGeometry x="190" y="210" width="80" height="80" as="geometry" />
        </mxCell>
        <mxCell id="stU05CKev7n2WLKIz2gp-7" value="" style="image;html=1;image=img/lib/clip_art/computers/Server_128x128.png" vertex="1" parent="1">
          <mxGeometry x="540" y="210" width="80" height="80" as="geometry" />
        </mxCell>
        <mxCell id="stU05CKev7n2WLKIz2gp-8" value="" style="image;html=1;image=img/lib/clip_art/computers/Server_128x128.png" vertex="1" parent="1">
          <mxGeometry x="700" y="210" width="80" height="80" as="geometry" />
        </mxCell>
      </root>
    </mxGraphModel>
  </diagram>
</mxfile>
